<?xml version="1.0" ?>
<!-- Uploaded to: SVG Repo, www.svgrepo.com, Generator: SVG Repo Mixer Tools -->
<svg fill="#000000" width="800px" height="800px" viewBox="0 0 64 64" xmlns="http://www.w3.org/2000/svg">
<g data-name="Hat magic wand" id="Hat_magic_wand">
<path d="M55.89,29.39a4.78,4.78,0,0,0-4.77-4.78H38.19l5.2-5.2h0l6-6.05a3.68,3.68,0,0,0,1.1-2.63,3.74,3.74,0,0,0-6.37-2.64L27.65,24.61H19a4.77,4.77,0,0,0-.82,9.47l-9,9a3.73,3.73,0,0,0,5.27,5.27l3.69-3.69-.76,6.81a5,5,0,0,0,5,5.55H47.74a5,5,0,0,0,5-5.55L50.8,34.16h.32A4.78,4.78,0,0,0,55.89,29.39Zm-4.77-2.78a2.78,2.78,0,0,1,0,5.55H30.63l5.56-5.55ZM42.79,12.29l2.45,2.44-2.56,2.56-2.44-2.44ZM46.8,9A1.73,1.73,0,0,1,48,12l-1.37,1.37-2.44-2.44,1.37-1.37A1.7,1.7,0,0,1,46.8,9ZM19,32.16a2.78,2.78,0,1,1,0-5.55h6.65L20.1,32.16ZM13.05,46.91a1.75,1.75,0,0,1-2.44,0,1.72,1.72,0,0,1,0-2.44L38.83,16.26l2.44,2.44ZM50,54a2.93,2.93,0,0,1-2.23,1H22.38a3,3,0,0,1-3-3.33l1-9.29,3-3h26l1.35,12.25A2.93,2.93,0,0,1,50,54Zm-.82-16.58H25.38l3.25-3.26H48.78Z"/>
<path d="M25.09,13.5a1,1,0,0,0-2,0v1.37a1,1,0,1,0,2,0Z"/>
<path d="M24.09,18.68a1,1,0,0,0-1,1v1.37a1,1,0,0,0,2,0V19.68A1,1,0,0,0,24.09,18.68Z"/>
<path d="M26.5,16.27a1,1,0,0,0,0,2h1.37a1,1,0,0,0,0-2Z"/>
<path d="M20.32,16.27a1,1,0,0,0,0,2h1.37a1,1,0,0,0,0-2Z"/>
<path d="M52.61,15.77a1,1,0,1,0-2,0V17a1,1,0,0,0,2,0Z"/>
<path d="M51.61,20.15a1,1,0,0,0-1,1v1.19a1,1,0,1,0,2,0V21.15A1,1,0,0,0,51.61,20.15Z"/>
<path d="M54.89,18.05H53.7a1,1,0,0,0,0,2h1.19a1,1,0,0,0,0-2Z"/>
<path d="M48.33,18.05a1,1,0,0,0,0,2h1.19a1,1,0,0,0,0-2Z"/>
</g>
</svg>