<?xml version="1.0" ?>
<!DOCTYPE svg  PUBLIC '-//W3C//DTD SVG 1.1//EN'  'http://www.w3.org/Graphics/SVG/1.1/DTD/svg11.dtd'>
<!-- Uploaded to: SVG Repo, www.svgrepo.com, Generator: SVG Repo Mixer Tools -->
<svg fill="#000000" width="800px" height="800px" viewBox="0 0 512 512" enable-background="new 0 0 512 512" id="cabinet_1_" version="1.1" xml:space="preserve" xmlns="http://www.w3.org/2000/svg" xmlns:xlink="http://www.w3.org/1999/xlink">
<g id="cabinet">
<path d="M392.806,272.919H119.194c-5.723,0-10.378,4.655-10.378,10.378v121.545c0,5.723,4.655,10.378,10.378,10.378h273.611   c5.723,0,10.378-4.655,10.378-10.378V283.297C403.184,277.574,398.528,272.919,392.806,272.919z M395.983,404.842   c0,1.752-1.426,3.178-3.178,3.178H119.194c-1.752,0-3.178-1.426-3.178-3.178V283.297c0-1.752,1.426-3.178,3.178-3.178h273.611   c1.752,0,3.178,1.426,3.178,3.178V404.842z"/>
<path d="M393.291,117.301H118.709c-5.455,0-9.893,4.438-9.893,9.892v122.516c0,5.455,4.438,9.893,9.893,9.893h274.582   c5.455,0,9.893-4.438,9.893-9.893V127.193C403.184,121.739,398.746,117.301,393.291,117.301z M395.983,249.709   c0,1.485-1.208,2.692-2.692,2.692H118.709c-1.485,0-2.692-1.208-2.692-2.692V127.193c0-1.484,1.208-2.692,2.692-2.692h274.582   c1.484,0,2.692,1.208,2.692,2.692V249.709z"/>
<path d="M256,174.592c-7.642,0-13.858,6.217-13.858,13.859s6.217,13.859,13.858,13.859s13.858-6.218,13.858-13.859   S263.642,174.592,256,174.592z M256,195.11c-3.671,0-6.659-2.987-6.659-6.659c0-3.671,2.987-6.659,6.659-6.659   c3.672,0,6.658,2.987,6.658,6.659C262.658,192.123,259.672,195.11,256,195.11z"/>
<path d="M256,330.211c-7.642,0-13.858,6.217-13.858,13.857c0,7.643,6.217,13.859,13.858,13.859s13.858-6.217,13.858-13.859   C269.858,336.428,263.642,330.211,256,330.211z M256,350.729c-3.671,0-6.659-2.987-6.659-6.66c0-3.671,2.987-6.658,6.659-6.658   c3.672,0,6.658,2.987,6.658,6.658C262.658,347.741,259.672,350.729,256,350.729z"/>
<path d="M416.123,102.183c8.426-3.636,14.34-12.019,14.34-21.763c0-13.066-10.63-23.697-23.696-23.697H105.233   c-13.066,0-23.696,10.631-23.696,23.697c0,9.744,5.915,18.126,14.339,21.763c-5.981,4.616-9.856,11.833-9.856,19.956v289.516   c0,13.908,11.314,25.223,25.222,25.223h10.649v10.6c0,4.301,3.499,7.801,7.8,7.801h49.733c4.301,0,7.8-3.5,7.8-7.801v-10.6h137.561   v10.6c0,4.301,3.499,7.801,7.8,7.801h49.732c4.301,0,7.801-3.5,7.801-7.801v-10.6h10.641c13.908,0,25.223-11.314,25.223-25.223   V122.139C425.98,114.017,422.105,106.799,416.123,102.183z M88.737,80.42c0-9.097,7.4-16.497,16.496-16.497h301.533   c9.096,0,16.496,7.4,16.496,16.497c0,9.096-7.4,16.497-16.496,16.497h-6.009H111.242h-6.008   C96.138,96.917,88.737,89.516,88.737,80.42z M180.023,447.477c0,0.332-0.269,0.601-0.6,0.601H129.69c-0.331,0-0.6-0.269-0.6-0.601   v-10.6h50.933V447.477z M382.917,447.477c0,0.332-0.269,0.601-0.601,0.601h-49.732c-0.33,0-0.6-0.269-0.6-0.601v-10.6h50.933   V447.477z M418.78,411.654c0,9.938-8.085,18.022-18.022,18.022h-10.641h-65.333H187.223h-65.333h-10.649   c-9.938,0-18.022-8.085-18.022-18.022V122.139c0-9.938,8.084-18.022,18.022-18.022h289.516c9.938,0,18.022,8.084,18.022,18.022   V411.654z"/>
</g>
</svg>